<svg xmlns="http://www.w3.org/2000/svg" viewBox="0 0 136.65 180.81"><defs><style>.cls-1{fill:none;stroke:#000;stroke-linecap:round;stroke-linejoin:round;}</style></defs><title>Asset 1</title><g id="Layer_2" data-name="Layer 2"><g id="Layer_10" data-name="Layer 10"><path class="cls-1" d="M76.43,1.11A28.51,28.51,0,0,1,73,4a5.86,5.86,0,0,1-1.45.67,4.49,4.49,0,0,1-1.09.17,3.79,3.79,0,0,1-1.12-.14c-1.32-.39-2.6-.94-3.93-1.28s-2.7-.69-3.66.79a14.27,14.27,0,0,1-1.11,1.57c-1.39,1.62-3,2.71-5.3,2.32a8,8,0,0,0-2.87-.15,27.89,27.89,0,0,0-3.78,1.33c0,.22,0,.62,0,1a2.91,2.91,0,0,0,.08,1.23c.6,1.08,1.39,2,1.95,3.15a6.89,6.89,0,0,1,.48,2.21c.1.8.1,1.61.15,2.57,2.38-2.12,4.9-2.4,7.2.62.3-1.22.65-1.59,1.47-1.57a2,2,0,0,1,1.67,1.92,24.35,24.35,0,0,1,0,2.85c-.12,2.68-.55,3.05-3.16,2.86a2.51,2.51,0,0,1-.43-.05c-.9-.23-2-.23-2.05-1.56,0-.14-.49-.26-.76-.34l-3.12-.93c-.51-.15-1-.34-1.75-.6C52.07,25.41,52,28.24,52,31c0,.78.09,1,.83,1,1.56.06,1.84.38,1.87,2a2.23,2.23,0,0,0,0,.65c.49,1.37-.39,2.21-1.18,3.08-1.57,1.73-3.9,1.2-5.82,1.92-.93.35-2,.24-2.71,1.2a4.2,4.2,0,0,1-2.1,1.4,18,18,0,0,1-8.83,0,2.45,2.45,0,0,1-1.35-.84c-1-1.47-1.84-3.07-2.88-4.53a12.87,12.87,0,0,0-3.08-3.57c-2.19-1.39-3.23-3.71-5-5.36-.44-.4-.86-.82-1.16-1.1a14.27,14.27,0,0,1-.92-2.4c-.25-1.33-.34-2.69-.46-4a3.47,3.47,0,0,0-2-3.07A13.14,13.14,0,0,0,12.54,16a15.42,15.42,0,0,0-4.32,0C7,16.19,5.69,16.49,5,17.89c1.45.8,2.84,1.61,4.26,2.36a4.14,4.14,0,0,1,2,4.11c-.57,0-1.14,0-1.71,0A7.3,7.3,0,0,0,4.2,25.51c-1,.81-2,1.72-2.95,2.62a1.12,1.12,0,0,0-.3.75c0,1.51.13,3,.21,4.53l1.15.44c1.16-1.33,2.24-2.61,4.27-2.56H6.9c.54,0,1.05,0,1.12.5s-.59,1-1,1.41-.91.45-1.26.79c-1.25,1.18-2.33,2.52-2.19,4.37a10.36,10.36,0,0,0,3.11,6.2,38.62,38.62,0,0,0,3.67,3.14l.36-.11c0-.33.13-.85,0-1-1.52-1-1.52-2.58-1.47-4.14,0-.67.48-1.06,1.08-.85a5.51,5.51,0,0,1,1.36,1c.46.31,1.16.47,1.42.9a7.53,7.53,0,0,1,.71,2.21c.16.65.37,1.13,1.19,1.07a2.76,2.76,0,0,1,2.48,1c1.07,1.23,1.78,3.29.15,4.71a1.08,1.08,0,0,0-.28.94,1,1,0,0,0,.81.5,14.46,14.46,0,0,0,1.81-.18A6,6,0,0,1,23.67,55c2.77,1.64,4.65,3.83,4.91,7.16.06.82,0,1.64,0,2.51,1.71,0,3.27,0,4.82,0,.23,0,.59-.18.65-.36.27-.85,1-1,1.68-1.24,1.95-.6,4.3.94,4.88,2.82s-.31,3.34-1,4.86a2.94,2.94,0,0,1-4.95.46.64.64,0,0,0-.43-.2c-1.34,0-2.67,0-3.63,0-.8,1.63-1.45,3-2.19,4.4a3.39,3.39,0,0,1-1.14,1.24c-2,1.24-4.22,1.13-6.43.69-.52-.11-1-.36-1.51-.49a.81.81,0,0,0-.62.08c-.1.08-.08.39,0,.58s.23.51.3.78c.21.8.06,1.34-.87,1.6a4.36,4.36,0,0,1-3.69-.74C12.67,78.07,11,76.94,9.17,76,7,75,5.09,75.59,3.64,77.53c-.27.37-.53.9-.9,1C1.35,79,1.2,80.43.53,81.43a.81.81,0,0,0,.22.75c.13.11.5,0,.74-.1s.56-.39.83-.38A8.31,8.31,0,0,1,4.76,82a2.18,2.18,0,0,1,1.31,1.19c.09.37-.53,1-.93,1.4-.62.65-1.31,1.25-1.95,1.88a12.85,12.85,0,0,0-.88,1,7.54,7.54,0,0,0-.69,1A3.16,3.16,0,0,0,1.2,91a3.83,3.83,0,0,1,0,3.29c-.09.15,0,.43,0,.63a8.41,8.41,0,0,0,3.3,4.37,1.22,1.22,0,0,0,.76.1h.39c-.28-.72-.61-1.18-.59-1.61a5.56,5.56,0,0,1,2.74-4.59c.49-.31.76-.17,1,.39a11.24,11.24,0,0,0,.7,1.36,7.63,7.63,0,0,1,.59,1.19c.4,1.3.18,2.69,1.35,3.87,2.08,2.09,4.27,3.32,7.26,2.38,1.07-.34,2.12-.71,3.15-1.06-.22-1.54-1.37-1.46-2.11-1.57a9.54,9.54,0,0,0-1.09-1.51,1.63,1.63,0,0,1-.38-2.07,8.91,8.91,0,0,1,2.2-2.29A9.56,9.56,0,0,1,25.79,92a21.75,21.75,0,0,1,4.72.29,26.67,26.67,0,0,1,4.38,1.23c.61.21,1,.15,1.24-.38a1,1,0,0,0-.62-1.4.83.83,0,0,1-.61-1.07,9,9,0,0,1,.5-1.68,3.82,3.82,0,0,1,.3-.55c.86-1.35,2-1.43,3.35-1.47a4.23,4.23,0,0,1,2.28,1.47,4.73,4.73,0,0,1,1.18,1.79,11,11,0,0,1,1.12-1.32l.54-.47a2.48,2.48,0,0,1,1.05-.57.82.82,0,0,1,1,.57,2.09,2.09,0,0,1,.14.69c0,.73-.09,1.48-.07,2.22a2.33,2.33,0,0,0,.3,1,1.72,1.72,0,0,0,.65-.15,9.75,9.75,0,0,1,2.76-1c2.41-.11,4.88-.39,7.15.84,1,.55,2.36.89,3,1.74,1.06,1.49,2.84,2.08,3.82,3.65.63,1,2.65.85,3.8.31a8.48,8.48,0,0,1,2.74-1.27,2.93,2.93,0,0,1,.71,0,3.32,3.32,0,0,1,.38.08c1.42.37,2.11,1.52,3,2.48a2.35,2.35,0,0,1,.43,1.46,6.21,6.21,0,0,1-.25,2.25A2.89,2.89,0,0,1,73.46,104a4.88,4.88,0,0,1-1.94.47h-.2l-.89,0a3.79,3.79,0,0,1-1.63-.32,3.18,3.18,0,0,1-1.41-1.84,3.42,3.42,0,0,0-3.09-2.65,8.29,8.29,0,0,0-4,.68,12.43,12.43,0,0,0-3.46,2c-1.42,1.36-2.32,3.17-3.82,4.56-1.69,1.58-3.3,2-5.16.63-.38.62-.24,2.91.23,3.24a28.42,28.42,0,0,0,3.95,2.58c.86.42.82.83.45,1.38-.63.93-.07,1.46.58,1.91a3.75,3.75,0,0,0,1.61.77c.92.09,1.82.92,2.82,0,.44-.4,1.1-.38,1.59.4a3.41,3.41,0,0,1,.19,2.56c-.28,2.19-.93,4.25-2.82,5.51A22.52,22.52,0,0,1,51,128.83a15.64,15.64,0,0,1-5.55.48,42.81,42.81,0,0,1-5.43-1,6,6,0,0,1-4.49-3.42,1.65,1.65,0,0,0-2.37-1,27.11,27.11,0,0,0-3.1,1.78,7.29,7.29,0,0,0-1.91,1.3,14.58,14.58,0,0,0-3.23,5.46,9.39,9.39,0,0,0,.42,5.77,1.09,1.09,0,0,0,.62.5c.09,0,.34-.21.45-.36a11.63,11.63,0,0,1,1.53-2.23c1.13-1,2.31-2.05,4-1.93a2.23,2.23,0,0,1,1.83,2.55c-.67,2.15-2.31,3.56-3.82,5.06s-3.33,3.25-3.06,5.76a9.71,9.71,0,0,0,3,5.88,2.64,2.64,0,0,0,.85.36,2.92,2.92,0,0,0,.33-1.09,5.09,5.09,0,0,1,.67-3.89,21,21,0,0,1,3.06-3.43,3.26,3.26,0,0,1,3.28-.8,16.69,16.69,0,0,0-.53,2.5,12.84,12.84,0,0,0,.75,5.11c.91,2.71,3,3.65,5.32,4.51.13.05.32,0,.47,0a4.1,4.1,0,0,1,.95-.09,5.64,5.64,0,0,0,4.51-1.21c-.46-.74-.9-1.38-1.28-2.05a17.81,17.81,0,0,1-.95-1.93c-.19-.45-.21-1-.42-1.41-1-2.24.21-5.22,2.6-5.7a3.23,3.23,0,0,1,3.07.7c.15.16.53.34.63.27a1.82,1.82,0,0,0,.62-.79c.2-.52.21-1.12.44-1.62a7.64,7.64,0,0,1,3.6-3.47,2.57,2.57,0,0,1,2.44.23,4.93,4.93,0,0,0,3,1.66,21.85,21.85,0,0,0,3.56.47c.13-2.09.62-2.86,1.89-2.71a8.44,8.44,0,0,1,1.71.44l1.09.39.68.23c.18-.24.78-.67.81-1.14a7.51,7.51,0,0,1,2.46-4.66c1.56-1.63,3.09-3.36,5.34-4.16.21-.07.36-.51.38-.79,0-.1-.42-.31-.67-.36-1.36-.25-2.74-.44-4.1-.69-1-.18-1.17-.75-1-1.72.36-1.72,1.67-2.78,2.62-4.1a.91.91,0,0,1,.56-.25,22.18,22.18,0,0,1,4.22-.59,8.94,8.94,0,0,1,3.83,1A8.06,8.06,0,0,1,89,125.06a9.48,9.48,0,0,1,1.84,5.85c-.06,2.42-.1,4.84-1.47,7.29a13.06,13.06,0,0,0,1.75-.62c1-.54,1.91-1.17,2.91-1.68A1.14,1.14,0,0,1,95,136c.58.35,1.06,1.09,1.63,1.15a10.58,10.58,0,0,0,2.64-.3c.74-.56,1.29-1,1.86-1.39.29-.21.6-.39.88-.59.74-.54,1.25-.36,1.46.53.37,1.54.79,3.09,1.06,4.65.2,1.18.56,2.47-.91,3.25a19.9,19.9,0,0,0-2,1.31,3.33,3.33,0,0,0-.44.54,6.71,6.71,0,0,1,.9.67c.21.22.48.54.46.79a7.41,7.41,0,0,1-1.52,3.9c-.89,1.16-1.9,2.24-2.85,3.36a2.59,2.59,0,0,1-2.86.74c-.61-.25-1.19-.6-1.81-.85-1.53-.62-3.05-1.29-4.63-1.78a24.26,24.26,0,0,0-3.35-.59.63.63,0,0,0-.42,0c-.85.68-1.93.62-2.85,1a28.48,28.48,0,0,0-4.87,2.6c-.35.21-.47.82-.7,1.25l1.24.38L82.8,158s0,.06.08.08L85,159.42a1.51,1.51,0,0,1,.6,2.15c-.73,1.31-1.54,2.57-2.22,3.9a14.69,14.69,0,0,0-1.63,3.86,9,9,0,0,0,1.09,5.44c.48,1,1.1,1.91,1.66,2.86.25.42.54.83.81,1.25l.35-.13c0-.3,0-.61,0-.91,0-1.6-.07-3.21,0-4.81a1,1,0,0,1,.65-.73,4.25,4.25,0,0,0,2.63-1.58,12.62,12.62,0,0,1,2.37-1.44l.25.29a10.35,10.35,0,0,0-.2,1.47c0,1.69-.59,3.5.76,5a3.86,3.86,0,0,1,1,3.21c0,.35.35.73.54,1.1.23-.29.58-.56.67-.89.17-.61.13-1.28.26-1.9.57-2.74.62-3,3.28-3.74a1,1,0,0,0,.6-.48,10.37,10.37,0,0,1,3-4.82,6.76,6.76,0,0,1,4.1-1.68c1.33-.06,1.88.8,2.53,1.68.24.32.85.76,1,.68.4-.27.9-.75.92-1.18.13-2.5,1.83-4.07,3.31-5.76.16-.18,1,0,1.26.19a5.47,5.47,0,0,1,.91,1.43c.2-.19.46-.33.44-.42-.15-1.18,1-2,.79-3.32a9.81,9.81,0,0,1,1.05-4.49,4,4,0,0,1,3.63-2.89c.95,0,1-.35,1.07-1.08a26.39,26.39,0,0,1,.45-4,13.22,13.22,0,0,1,1.29-3.22,36.85,36.85,0,0,1,3-5,12.05,12.05,0,0,1,2.8-2c-.12-.16-.28-.61-.56-.69a9.59,9.59,0,0,0-4.48-.77,5,5,0,0,1-2.58-.11,6.84,6.84,0,0,1-2-1.71c-.11-.11,0-.45,0-.68.27-1.94,1.1-3.82.3-5.84-.48-1.21-.76-2.52-2-3.53l-.77,2h-1a10.36,10.36,0,0,1-.67-1.48c-.3-1.07-.55-2.16-.78-3.26-.18-.88.36-1.12,1.12-1.12H117a3.3,3.3,0,0,0,1.34-.15,26.82,26.82,0,0,0,3.78-1.86,16.51,16.51,0,0,0,5.59-4.86c.41-.62.86-1.22,1.21-1.87,1.06-2,2.14-3.92,3.12-5.93a9.07,9.07,0,0,0,.76-4.63c-.08-1.47.28-2.94.32-4.42.06-2.05-.09-4.12,0-6.16a16.7,16.7,0,0,0,0-1.93c0-.65-.09-1.3-.16-1.94-.1-.93-.21-1.86-.27-2.8-.16-2.42-.19-4.84-.25-7.27,0-.38.29-.83.17-1.14-.5-1.28.12-2.33.46-3.49.54-1.84.93-2.3-.48-3.34-1.8,1.65-1.8,1.65-2.33,1.55.17-5.92,2.93-10.88,5.86-15.85-.25-.11-.51-.32-.76-.3-1.2.06-1-.71-.93-1.45a2.84,2.84,0,0,1,.24-.7c1.28-2.81,1-5.71.2-8.53a14.84,14.84,0,0,0-2.05-4,10.68,10.68,0,0,0-2.44-2.62,9.42,9.42,0,0,0-2.81-1.18,8.46,8.46,0,0,0-2.36-.43,15.66,15.66,0,0,0-3.43.22c-1.89.38-3.94.44-5.34,2.11a.88.88,0,0,1-.77.23c-1.23-.46-2.34.11-3.38.51a8.42,8.42,0,0,0-4.43,3.34A2.89,2.89,0,0,1,105.11,43a7.2,7.2,0,0,0-2.69.45c-.61.19-1.21.32-2.7,3.36.26.26,1.85.11,2.64.33s.79.83.79,1.55,0,1.54-2.35,3.89a6,6,0,0,0-1.41,2.75c-.56,2.66.41,5.14,1.28,7.61,0,.1.08.23.16.27,1.34.57,2.67,1.16,4,1.67.25.09.61-.12.79-.16a18,18,0,0,1-.83-3.05,3.39,3.39,0,0,1,1.94-3.28c1.14-.33,3.55.55,4.05,1.65a7.28,7.28,0,0,1,.23,2.21c.1,0,.54-.08.7-.31,1.51-2.18,2.85-4.45,2.4-7.28a2,2,0,0,0-.24-.65,1.41,1.41,0,0,1,.45-1.94,10.49,10.49,0,0,0,4.51-3.6,22,22,0,0,0,2.4-4.69,3.88,3.88,0,0,0-.28-2.18c-.24-.85.21-1,.85-1.09a4.56,4.56,0,0,1,3.48,1.09c2.82,1.85,3.76,4.49,3.3,7.87a25,25,0,0,1-2,6.72,7.79,7.79,0,0,1-.43,1.21,6.38,6.38,0,0,1-.89,1,5.22,5.22,0,0,1-.13,1.16c-.52,1.42-1.08,2.83-1.63,4.23a24.33,24.33,0,0,0-1.55,4,36.89,36.89,0,0,0-1,7.5,43.11,43.11,0,0,0,1.42,11.25c.07.23.13.46.21.7a1.46,1.46,0,0,1-.14,1.24c-.21.35-.5.64-.7,1a14.63,14.63,0,0,0-1.92,6.58,6.14,6.14,0,0,0,.29,2c.13.49.54.76.91.19.5-.78.82-1.67,1.37-2.41.42-.56,1.05-1.28,1.65-1.34a2.12,2.12,0,0,1,2.07,1.95,14.63,14.63,0,0,1-.47,7.72,11,11,0,0,1-1.78,2.59c-.87,1.12-1.65,2.4-3.17,2.76s-3.17.76-4.77,1a12,12,0,0,1-6.62-1.31c-2.46-1.09-4.31-2.9-6.42-4.4a1.35,1.35,0,0,1-.45-1.12c.06-.3.54-.59.88-.75.66-.32,1.37-.54,2.05-.8l0-.32c-1-.58-1.9-1.21-2.89-1.72a19.09,19.09,0,0,1-5.35-4.47C96,94.2,95,92.77,93.94,91.39a2.83,2.83,0,0,1-.51-.93c-.44-1.53-.23-1.95.91-2.07l.36,0a8.06,8.06,0,0,0,3-1.11c-.42-.25-.83-.52-1.22-.8-4.76-3.39-6.92-8.39-8.69-13.88a4.08,4.08,0,0,0,4-1.95c-1.24-1.12-2.43-2.16-3.58-3.26a14.87,14.87,0,0,1-4.13-6.1,6.74,6.74,0,0,1,.54-6.05,12.67,12.67,0,0,1,3-2.93,1.63,1.63,0,0,1,2.55,1.36c0,.29,0,.58,0,.87l.26.19c.38-.44.74-.88,1.12-1.31.62-.71,1.28-1.4,1.88-2.13.28-.34.42-.79.67-1.16.13-.19.36-.43.53-.42a1,1,0,0,1,.63.39c.29.39.5.84.75,1.27l.36,0A9.21,9.21,0,0,0,97,49.45c.19-2.09.27-4.19.4-6.34.26,0,.49,0,.59.12.44.45.88.89,1.3,1.35a7.4,7.4,0,0,0,.69-2.89c-.06-.78-.26-2.34-.46-3.89a3.18,3.18,0,0,0-.27-.69L98.47,35c-.07-.18-.09-.47-.22-.53-.82-.38-.38-1-.15-1.37.71-1,1.58-2,2.36-2.95.24-.3.64-.76.56-1a1.65,1.65,0,0,0-1-.8c-1.36-.36-2.79-.53-4.12-1A3.5,3.5,0,0,1,94.14,26c-1-1.67-1.88-3.44-2.76-5.21a1.1,1.1,0,0,1,.21-.95c.87-.92,1.81-1.78,2.72-2.66a4.86,4.86,0,0,0,.89-.82c.66-1.11,1.25-2.25,1.85-3.38.27-.51.74-1.11.64-1.57a1.66,1.66,0,0,0-1.31-.89,7.91,7.91,0,0,0-2.78.55,9.59,9.59,0,0,1-4.64.63,2.83,2.83,0,0,1-2.44-1.42,1.74,1.74,0,0,1,.69-2.5c.15-.09.08-.81-.08-1.15a7,7,0,0,0-2.35-2.55,9,9,0,0,0-3-1.45,21,21,0,0,0-3.51-.34L76.88.5A3.83,3.83,0,0,1,76.43,1.11Z"/></g></g></svg>